# xmcd
#
# Track frame offsets: 
#        150
#        15636
#        32479
#        51672
#        72245
#        89918
#        108542
#        129512
#        145125
#        163890
#        180349
#        197438
#        218709
#
# Disc length: 3156 seconds
#
# Revision: 0
# Processed by: cddbd v1.5.2PL0 Copyright (c) Steve Scherf et al.
# Submitted via: ExactAudioCopy v0.99pb3
#
DISCID=bc0c520d
DTITLE=Red Dust - Den Hanrahan
DYEAR=2008
DGENRE=country
TTITLE0=Highway 32
TTITLE1=I Live For You
TTITLE2=Hope You Understand
TTITLE3=Red Dust
TTITLE4=The Ballad of Jimmy Lee
TTITLE5=Colour if Your Eyes
TTITLE6=Missing You
TTITLE7=This Ol Train
TTITLE8=Mountain Road
TTITLE9=The Farmer
TTITLE10=Hey Hey
TTITLE11=Stealin
TTITLE12=Like Things Slow
EXTD=
EXTT0=
EXTT1=
EXTT2=
EXTT3=
EXTT4=
EXTT5=
EXTT6=
EXTT7=
EXTT8=
EXTT9=
EXTT10=
EXTT11=
EXTT12=
PLAYORDER=
